<svg xmlns="http://www.w3.org/2000/svg" viewBox="0 0 131.38 40.009"><defs><style>.cls-1{fill:#fff;}</style></defs><g id="Layer_2" data-name="Layer 2"><g id="icon-nagase-logo"><path id="Path_1" data-name="Path 1" class="cls-1" d="M12.428,10.551c-.1-.357-.2-.694-.3-1,0,0-.792.033-1.146.033-.385,0-1.193-.033-1.193-.033a13.0035,13.0035,0,0,1,.133,1.395,10.7265,10.7265,0,0,1,2.5-.393"/><path id="Path_2" data-name="Path 2" class="cls-1" d="M11.055,13.031a3.3668,3.3668,0,0,0-1.109.588v1.88a41.0607,41.0607,0,0,1-.143,4.113s.307-.034.7-.034.7.034.7.034a40.1707,40.1707,0,0,1-.153-4.093Z"/><path id="Path_3" data-name="Path 3" class="cls-1" d="M14.362,16.601a2.1,2.1,0,0,0,1.113-.686V13.664c0-1.374,0-2.6.14-4.115a6.5852,6.5852,0,0,1-.716.034,5.6107,5.6107,0,0,1-.687-.034,40.5674,40.5674,0,0,1,.152,4.094Z"/><path id="Path_4" data-name="Path 4" class="cls-1" d="M12.827,16.787a5.82,5.82,0,0,0,1.4-.148c-.342-1.15-.761-2.568-1.163-3.934h-.238a5.4611,5.4611,0,0,0-1.6.273c.324,1.069.741,2.448,1.139,3.785a4.1648,4.1648,0,0,0,.463.027"/><path id="Path_5" data-name="Path 5" class="cls-1" d="M13.002,18.937c.067.236.133.462.193.675,0,0,.567-.029,1.106-.029.634,0,1.238.029,1.238.029-.008-.148-.021-.547-.034-1a10.7,10.7,0,0,1-2.5.322"/><path id="Path_6" data-name="Path 6" class="cls-1" d="M16.116,11.733c-.014.545-.015,1.085-.015,1.649a2.59,2.59,0,0,1,.345,1.362c-.006,2.626-2.806,2.668-3.619,2.668a5.598,5.598,0,0,1-1.129-.13c.008.331.021.653.039.979a8.7012,8.7012,0,0,0,.952.054c2.506,0,5.6-.667,5.6-3.572a3.1,3.1,0,0,0-2.169-3.011"/><path id="Path_7" data-name="Path 7" class="cls-1" d="M9.296,17.689c.018-.774.012-2.08.012-2.945a6.9471,6.9471,0,0,1,.035-1.382,5.1569,5.1569,0,0,1,3.484-1.285,7.4143,7.4143,0,0,1,.9.047c-.006-.318-.014-.617-.027-.912-.342-.027-.682-.039-1.012-.039a11.5625,11.5625,0,0,0-5.015,1.33s.07.584.07,2.241-.07,2.242-.07,2.242a11.4023,11.4023,0,0,0,1.623.7"/><path id="Path_8" data-name="Path 8" class="cls-1" d="M12.635,0,0,21.886H25.268Zm0,2.918L22.743,20.426H2.526Z"/><path id="Path_9" data-name="Path 9" class="cls-1" d="M43.132,17.328v-5.43a67.216,67.216,0,0,0-.254-6.847,9.4042,9.4042,0,0,0,1.138.055,10.9929,10.9929,0,0,0,1.187-.055c-.234,2.536-.234,4.586-.234,6.883v5.593c0,.942.077,3.783.108,4.358,0,0-1.118-.048-2.179-.048-.9,0-1.96.048-1.96.048-1.9-2.4-7.061-9.189-9.39-12.041v5.194a67.5645,67.5645,0,0,0,.254,6.847,11.4078,11.4078,0,0,0-1.166-.058,11.2911,11.2911,0,0,0-1.16.058,68.7941,68.7941,0,0,0,.237-6.881V8.586a25.0234,25.0234,0,0,0-.254-3.535s1.461.055,2.105.055c.593,0,2.026-.055,2.026-.055,1.646,2.23,6.952,9.076,9.54,12.277"/><path id="Path_10" data-name="Path 10" class="cls-1" d="M60.178,12.264c-1.286-3.756-2.057-5.887-2.436-7.213,0,0-.983.057-2.069.057-1.285,0-2.05-.057-2.05-.057s-1.679,5.2-3.443,9.8c-1.2,3.148-2.417,6.018-2.85,7.028,0,0,.567-.052,1.311-.052s1.376.052,1.376.052a49.5981,49.5981,0,0,1,1.5-5.539c1.162-.048,2.151-.009,2.783-.009.591,0,1.449-.018,2.463.013.74,2.743,1.319,4.8,1.5,5.539,0,0,1.215-.055,2.7-.055s2.788.055,2.788.055c-.472-1.077-2.071-5.227-3.577-9.622m-5.887,2.6c-.807,0-1.471.015-2.291-.012.873-2.607,2.388-6.522,2.388-6.522s.967,2.691,1.739,5.621c.081.307.161.61.239.906-.688.02-1.356.007-2.075.007"/><path id="Path_11" data-name="Path 11" class="cls-1" d="M74.416,22.207c-2.823,0-9.711-1.258-9.711-8.649,0-6.22,4.6-8.827,10.23-8.827,4.155,0,6.087,1.23,6.658,1.555V9.452H81.38a6.406,6.406,0,0,0-6.049-3.363c-2.979,0-5.637,1.813-5.637,7.469,0,6.549,3.432,7.179,5.042,7.179a4.2785,4.2785,0,0,0,2.184-.5c.2-.114.2-.2.22-.507,0-.019.012-.747.012-2.188a22.6374,22.6374,0,0,0-.28-3.492c.483.024,1.409.058,2.485.058s2.005-.034,2.482-.058a56.4476,56.4476,0,0,0-.245,6.671,16.7915,16.7915,0,0,1-7.178,1.484"/><path id="Path_12" data-name="Path 12" class="cls-1" d="M96.758,12.264c-1.286-3.756-2.057-5.887-2.436-7.212,0,0-.982.055-2.069.055-1.284,0-2.05-.055-2.05-.055s-1.679,5.2-3.443,9.8C85.56,18,84.343,20.87,83.91,21.88c0,0,.567-.052,1.311-.052s1.376.052,1.376.052a49.6471,49.6471,0,0,1,1.5-5.539c1.162-.048,2.151-.009,2.783-.009.591,0,1.449-.018,2.465.013.739,2.743,1.318,4.8,1.5,5.538,0,0,1.215-.054,2.7-.054s2.79.054,2.79.054c-.474-1.076-2.072-5.226-3.578-9.621m-5.887,2.6c-.806,0-1.471.015-2.291-.011.873-2.607,2.388-6.522,2.388-6.522s.967,2.691,1.738,5.619q.1239.461.242.907c-.689.019-1.356.006-2.076.006"/><path id="Path_13" data-name="Path 13" class="cls-1" d="M115.058,8.789h-.17a5.1141,5.1141,0,0,0-4.819-2.7c-3.094,0-3.439,1.381-3.439,2.011,0,1.887,1.961,2.546,4.374,3.7,2.083.993,5.332,2.156,5.332,5.579,0,2.441-2.257,4.834-7.682,4.834a11.7218,11.7218,0,0,1-6.352-1.622c-.041-.97-.046-2.661,0-3.534h.22a6.18,6.18,0,0,0,5.932,3.8c1.92,0,3.236-.792,3.236-2.228,0-1.825-2.386-2.734-4.025-3.542-1.676-.827-5.166-2.219-5.166-5.51,0-3.049,2.51-4.843,6.769-4.843a24.0235,24.0235,0,0,1,4.775.65c.123.027.689.148,1,.193.045.707.028,2.217.011,3.216"/><path id="Path_14" data-name="Path 14" class="cls-1" d="M131.375,19.924a20.1207,20.1207,0,0,1-4.7.5c-1.593,0-2.538-.046-2.538-.046s-.038-1.951-.038-4.067v-2.3s1.473-.044,2.6-.044a16.6953,16.6953,0,0,1,3.024.211,17.495,17.495,0,0,1,0-1.774,23.1848,23.1848,0,0,1-3.046.191c-1.634,0-2.572-.064-2.572-.064V9.892c0-2.373.048-3.329.048-3.329s.991-.077,2.4-.077a21.5177,21.5177,0,0,1,4.314.405c-.18-.978-.278-1.84-.278-1.84-1.312.1-3,.108-5.364.108-2.3,0-5.605-.108-5.605-.108.067.765.219,3.035.219,7.955,0,5.651-.133,8.091-.191,8.879,0,0,3.274-.11,5.718-.11,2.354,0,3.524,0,5.589.11a11.27,11.27,0,0,1,.425-1.961"/><path id="Path_15" data-name="Path 15" class="cls-1" d="M2.223,37.544V29.625H3.868l2.044,3.4a21.5724,21.5724,0,0,1,1.352,2.653h.022c-.093-1.057-.128-2.08-.128-3.29v-2.76H8.497v7.919H7.005L4.936,34.066a27.52,27.52,0,0,1-1.421-2.738l-.035.011c.059,1.024.071,2.069.071,3.374v2.831Z"/><path id="Path_16" data-name="Path 16" class="cls-1" d="M13.326,37.545l-.094-.635h-.035a2.1252,2.1252,0,0,1-1.692.763,1.7,1.7,0,0,1-1.7971-1.597c-.002-.0343-.003-.0687-.0029-.103,0-1.445,1.281-2.174,3.4-2.162v-.094c0-.376-.152-1-1.163-1a3.0392,3.0392,0,0,0-1.54.422L10.12,32.2a4.1135,4.1135,0,0,1,2.068-.507,2.1411,2.1411,0,0,1,2.362,2.409v2.069a9.1628,9.1628,0,0,0,.082,1.375Zm-.188-2.8c-1.023-.024-2,.2-2,1.069a.76.76,0,0,0,.823.823,1.17,1.17,0,0,0,1.127-.788,1.0354,1.0354,0,0,0,.047-.317Z"/><path id="Path_17" data-name="Path 17" class="cls-1" d="M21.305,31.822c-.024.388-.047.858-.047,1.646v3.243a3.3114,3.3114,0,0,1-.847,2.6,3.2923,3.2923,0,0,1-2.208.693,4.04,4.04,0,0,1-2-.458l.317-1.092a3.4652,3.4652,0,0,0,1.668.435,1.5222,1.5222,0,0,0,1.646-1.728v-.494H19.81a1.9289,1.9289,0,0,1-1.668.847,2.538,2.538,0,0,1-2.4451-2.6276q.0032-.0864.0121-.1724a2.7411,2.7411,0,0,1,2.4434-3.0093q.0782-.0081.1566-.0117a1.8,1.8,0,0,1,1.658.894h.022l.059-.765Zm-1.493,2.291a1.3994,1.3994,0,0,0-.047-.388,1.2,1.2,0,0,0-1.175-.928c-.811,0-1.411.706-1.411,1.868,0,.975.495,1.762,1.4,1.762a1.233,1.233,0,0,0,1.175-.869,2.4843,2.4843,0,0,0,.059-.517Z"/><path id="Path_18" data-name="Path 18" class="cls-1" d="M26.029,37.545l-.094-.635H25.9a2.1252,2.1252,0,0,1-1.692.763,1.7,1.7,0,0,1-1.7971-1.597c-.002-.0343-.003-.0687-.0029-.103,0-1.445,1.281-2.174,3.4-2.162v-.094c0-.376-.152-1-1.163-1a3.0392,3.0392,0,0,0-1.54.422l-.282-.939a4.1135,4.1135,0,0,1,2.064-.509A2.1411,2.1411,0,0,1,27.249,34.1v2.069a9.1628,9.1628,0,0,0,.082,1.375Zm-.188-2.8c-1.023-.024-2,.2-2,1.069a.76.76,0,0,0,.823.823,1.17,1.17,0,0,0,1.127-.788,1.0354,1.0354,0,0,0,.047-.317Z"/><path id="Path_19" data-name="Path 19" class="cls-1" d="M28.709,36.217a3.2307,3.2307,0,0,0,1.468.411c.635,0,.918-.259.918-.635s-.236-.587-.94-.834c-1.117-.388-1.587-1-1.575-1.668a1.9141,1.9141,0,0,1,2.0091-1.814q.0767.0039.1529.014a3.3542,3.3542,0,0,1,1.516.34l-.283,1.023a2.56,2.56,0,0,0-1.21-.33c-.516,0-.8.247-.8.6s.27.541,1,.8c1.033.375,1.515.9,1.527,1.749,0,1.034-.811,1.787-2.327,1.787a3.7007,3.7007,0,0,1-1.739-.4Z"/><path id="Path_20" data-name="Path 20" class="cls-1" d="M34.699,35.091a1.555,1.555,0,0,0,1.6145,1.4931q.075-.003.15-.0131a4.3188,4.3188,0,0,0,1.586-.257l.212,1a5.3824,5.3824,0,0,1-2,.352,2.7058,2.7058,0,0,1-2.949-2.891,2.833,2.833,0,0,1,2.5773-3.0675q.1112-.01.2227-.0105a2.4879,2.4879,0,0,1,2.468,2.785,3.5524,3.5524,0,0,1-.047.611Zm2.515-1.011a1.2309,1.2309,0,0,0-1.05-1.3887,1.218,1.218,0,0,0-.1362-.0113,1.414,1.414,0,0,0-1.329,1.4Z"/><path id="Path_21" data-name="Path 21" class="cls-1" d="M42.234,29.73a12.05,12.05,0,0,1,2.1-.165,3.7547,3.7547,0,0,1,2.268.505,1.6711,1.6711,0,0,1,.822,1.481,1.842,1.842,0,0,1-1.313,1.718v.024a2,2,0,0,1,1.6,1.963,2.052,2.052,0,0,1-.763,1.633,4.4,4.4,0,0,1-2.937.741,13.9518,13.9518,0,0,1-1.774-.106Zm1.433,3.125h.741c1,0,1.562-.47,1.562-1.139,0-.741-.563-1.081-1.48-1.081a3.934,3.934,0,0,0-.823.059Zm0,3.643a6.4083,6.4083,0,0,0,.765.035c.927,0,1.751-.352,1.751-1.328,0-.917-.8-1.292-1.8-1.292h-.716Z"/><path id="Path_22" data-name="Path 22" class="cls-1" d="M54.065,35.829c0,.682.024,1.245.047,1.715H52.843l-.071-.869h-.024a2.068,2.068,0,0,1-1.833,1c-1.046,0-2-.623-2-2.492V31.821h1.444v3.115c0,.952.306,1.562,1.07,1.562a1.2189,1.2189,0,0,0,1.105-.775,1.3364,1.3364,0,0,0,.081-.446V31.821H54.06Z"/><path id="Path_23" data-name="Path 23" class="cls-1" d="M55.555,36.217a3.2307,3.2307,0,0,0,1.468.411c.635,0,.918-.259.918-.635s-.236-.587-.94-.834c-1.117-.388-1.587-1-1.575-1.668a1.9141,1.9141,0,0,1,2.0091-1.814q.0766.0039.1529.014a3.3542,3.3542,0,0,1,1.516.34l-.283,1.023a2.5611,2.5611,0,0,0-1.21-.33c-.516,0-.8.247-.8.6s.27.541,1,.8c1.033.375,1.515.9,1.527,1.749,0,1.034-.811,1.787-2.327,1.787a3.7007,3.7007,0,0,1-1.739-.4Z"/><path id="Path_24" data-name="Path 24" class="cls-1" d="M62.068,30.224a.811.811,0,1,1-.8346-.7866l.0226,0a.766.766,0,0,1,.8109.7183q.0021.0343.0011.0687m-1.54,1.6h1.456v5.722H60.528Z"/><path id="Path_25" data-name="Path 25" class="cls-1" d="M63.536,33.526c0-.657-.012-1.21-.047-1.7h1.269l.071.858h.035a2.0619,2.0619,0,0,1,1.821-.987c1,0,2.032.647,2.032,2.456v3.4H67.273v-3.24c0-.822-.305-1.444-1.093-1.444a1.214,1.214,0,0,0-1.129.846,1.502,1.502,0,0,0-.059.469v3.361H63.536Z"/><path id="Path_26" data-name="Path 26" class="cls-1" d="M71.28,35.091a1.555,1.555,0,0,0,1.6145,1.4931q.075-.003.15-.0131a4.3188,4.3188,0,0,0,1.586-.257l.212,1a5.3824,5.3824,0,0,1-2,.352,2.706,2.706,0,0,1-2.947-2.895,2.833,2.833,0,0,1,2.5773-3.0675q.1111-.01.2227-.01a2.4879,2.4879,0,0,1,2.468,2.785,3.5424,3.5424,0,0,1-.047.611Zm2.515-1.011a1.2309,1.2309,0,0,0-1.05-1.3887,1.218,1.218,0,0,0-.1362-.0113,1.414,1.414,0,0,0-1.329,1.4Z"/><path id="Path_27" data-name="Path 27" class="cls-1" d="M76.252,36.217a3.2307,3.2307,0,0,0,1.468.411c.635,0,.918-.259.918-.635s-.236-.587-.94-.834c-1.117-.388-1.587-1-1.575-1.668a1.914,1.914,0,0,1,2.0093-1.8137q.0756.0039.1507.0137a3.3542,3.3542,0,0,1,1.516.34l-.283,1.023a2.56,2.56,0,0,0-1.21-.33c-.516,0-.8.247-.8.6s.27.541,1,.8c1.033.375,1.515.9,1.527,1.749,0,1.034-.811,1.787-2.327,1.787a3.7007,3.7007,0,0,1-1.739-.4Z"/><path id="Path_28" data-name="Path 28" class="cls-1" d="M81.151,36.217a3.2307,3.2307,0,0,0,1.468.411c.635,0,.918-.259.918-.635s-.236-.587-.94-.834c-1.117-.388-1.587-1-1.575-1.668a1.9141,1.9141,0,0,1,2.0091-1.814q.0767.0039.1529.014a3.3542,3.3542,0,0,1,1.516.34l-.283,1.023a2.56,2.56,0,0,0-1.21-.33c-.516,0-.8.247-.8.6s.27.541,1,.8c1.033.375,1.515.9,1.527,1.749,0,1.034-.811,1.787-2.327,1.787a3.7007,3.7007,0,0,1-1.739-.4Z"/><path id="Path_29" data-name="Path 29" class="cls-1" d="M88.578,35.971a4.0057,4.0057,0,0,0,1.916.505c.928,0,1.445-.435,1.445-1.081,0-.6-.4-.952-1.41-1.316-1.3-.47-2.138-1.163-2.138-2.3,0-1.292,1.08-2.28,2.8-2.28a4.1919,4.1919,0,0,1,1.9.4l-.35,1.16a3.3426,3.3426,0,0,0-1.574-.377c-.918,0-1.317.494-1.317.952,0,.611.458.894,1.516,1.3,1.375.517,2.045,1.211,2.045,2.35,0,1.27-.964,2.374-3.009,2.374a4.7109,4.7109,0,0,1-2.138-.492Z"/><path id="Path_30" data-name="Path 30" class="cls-1" d="M95.744,35.091a1.555,1.555,0,0,0,1.6145,1.4931q.075-.003.1495-.0131a4.3188,4.3188,0,0,0,1.586-.257l.212,1a5.3824,5.3824,0,0,1-2,.352,2.7058,2.7058,0,0,1-2.944-2.895,2.833,2.833,0,0,1,2.5773-3.0675q.1112-.01.2227-.01a2.4879,2.4879,0,0,1,2.468,2.785,3.5424,3.5424,0,0,1-.047.611Zm2.518-1.012a1.23,1.23,0,0,0-1.186-1.4,1.414,1.414,0,0,0-1.329,1.4Z"/><path id="Path_31" data-name="Path 31" class="cls-1" d="M100.786,33.667c0-.775-.012-1.328-.047-1.845h1.257l.047,1.093h.047a1.7061,1.7061,0,0,1,1.562-1.224,1.5236,1.5236,0,0,1,.342.035v1.365a2.0121,2.0121,0,0,0-.423-.047,1.275,1.275,0,0,0-1.294,1.093,2.5881,2.5881,0,0,0-.046.446v2.96h-1.445Z"/><path id="Path_32" data-name="Path 32" class="cls-1" d="M106.144,31.822l.928,2.9c.164.5.282.962.388,1.434h.035c.1-.471.234-.917.388-1.434l.9-2.9h1.527l-2.185,5.722h-1.418l-2.128-5.722Z"/><path id="Path_33" data-name="Path 33" class="cls-1" d="M112.736,30.224a.811.811,0,1,1-.8346-.7866l.0236,0a.766.766,0,0,1,.81.7193c.0013.0226.0017.0451.001.0677m-1.539,1.6h1.456v5.722h-1.458Z"/><path id="Path_34" data-name="Path 34" class="cls-1" d="M118.407,37.369a4.2,4.2,0,0,1-1.621.293,2.7467,2.7467,0,0,1-2.949-2.913,2.9582,2.9582,0,0,1,3.187-3.058,3.6,3.6,0,0,1,1.4.271l-.258,1.081a2.5236,2.5236,0,0,0-1.093-.224,1.706,1.706,0,0,0-1.757,1.6534,1.729,1.729,0,0,0,.006.2036,1.7,1.7,0,0,0,1.751,1.845,2.8208,2.8208,0,0,0,1.14-.224Z"/><path id="Path_35" data-name="Path 35" class="cls-1" d="M120.397,35.091a1.555,1.555,0,0,0,1.6145,1.4931q.075-.003.15-.0131a4.3188,4.3188,0,0,0,1.586-.257l.212,1a5.3824,5.3824,0,0,1-2,.352,2.7058,2.7058,0,0,1-2.949-2.891,2.833,2.833,0,0,1,2.5773-3.0675q.1112-.01.2227-.0105a2.4879,2.4879,0,0,1,2.468,2.785,3.5424,3.5424,0,0,1-.047.611Zm2.515-1.011a1.23,1.23,0,0,0-1.186-1.4,1.414,1.414,0,0,0-1.329,1.4Z"/><path id="Path_36" data-name="Path 36" class="cls-1" d="M125.369,36.217a3.2307,3.2307,0,0,0,1.468.411c.635,0,.918-.259.918-.635s-.236-.587-.94-.834c-1.117-.388-1.587-1-1.575-1.668a1.9141,1.9141,0,0,1,2.009-1.814q.0768.0039.153.014a3.3542,3.3542,0,0,1,1.516.34l-.283,1.023a2.56,2.56,0,0,0-1.21-.33c-.516,0-.8.247-.8.6s.27.541,1,.8c1.033.375,1.515.9,1.527,1.749,0,1.034-.811,1.787-2.327,1.787a3.7007,3.7007,0,0,1-1.739-.4Z"/></g></g></svg>